<?xml version="1.0" standalone="no"?>
<!DOCTYPE svg PUBLIC "-//W3C//DTD SVG 20010904//EN"
 "http://www.w3.org/TR/2001/REC-SVG-20010904/DTD/svg10.dtd">
<svg version="1.0" xmlns="http://www.w3.org/2000/svg"
 width="512.000000pt" height="512.000000pt" viewBox="0 0 512.000000 512.000000"
 preserveAspectRatio="xMidYMid meet">

<g transform="translate(0.000000,512.000000) scale(0.100000,-0.100000)"
fill="#000000" stroke="none">
<path d="M1952 5109 c-62 -12 -140 -51 -189 -93 -23 -20 -77 -88 -119 -151
l-78 -115 -690 0 c-451 0 -704 -4 -729 -11 -49 -13 -105 -63 -128 -114 -27
-59 -27 -410 0 -542 52 -250 214 -459 446 -575 52 -26 90 -39 320 -108 77 -23
144 -46 148 -50 5 -4 -10 -73 -32 -153 -135 -493 -200 -981 -188 -1412 4 -154
11 -225 29 -310 l23 -110 153 -3 c83 -1 152 -1 152 1 0 2 -9 47 -20 100 -43
206 -47 438 -14 804 78 859 420 1850 882 2553 119 181 187 244 302 281 l55 18
-140 -1 c-77 0 -159 -4 -183 -9z"/>
<path d="M3570 4746 c0 -3 32 -61 71 -128 192 -333 423 -863 519 -1190 22 -75
23 -76 49 -68 14 5 107 34 206 66 261 82 361 138 482 268 171 182 230 382 221
746 -3 143 -5 158 -28 200 -16 28 -43 55 -74 75 l-49 30 -699 3 c-384 1 -698
1 -698 -2z"/>
<path d="M910 995 c0 -15 109 -185 168 -260 179 -233 406 -415 677 -546 427
-207 893 -242 1352 -103 457 138 847 449 1088 866 l27 48 -1656 0 c-911 0
-1656 -2 -1656 -5z"/>
</g>
</svg>
